<?xml version="1.0" encoding="UTF-8"?>
<!DOCTYPE svg PUBLIC "-//W3C//DTD SVG 1.1//EN" "http://www.w3.org/Graphics/SVG/1.1/DTD/svg11.dtd">
<!-- Creator: CorelDRAW 2018 (64 Bit) -->
<svg xmlns="http://www.w3.org/2000/svg" xml:space="preserve" width="157mm" height="102mm" version="1.1" style="shape-rendering:geometricPrecision; text-rendering:geometricPrecision; image-rendering:optimizeQuality; fill-rule:evenodd; clip-rule:evenodd"
viewBox="0 0 15700 10200"
 xmlns:xlink="http://www.w3.org/1999/xlink">
 <defs>
  <style type="text/css">
   <![CDATA[
    .fil0 {fill:#DBDBDB}
   ]]>
  </style>
 </defs>
 <g id="Capa_x0020_1">
  <metadata id="CorelCorpID_0Corel-Layer"/>
  <path class="fil0" d="M12381.62 381.9c-132.29,151.69 -421.57,486.83 -645.58,746.12 -222.25,259.29 -421.57,486.83 -440.97,508 -201.08,213.43 -615.6,693.21 -645.58,746.12 -35.28,65.26 -51.15,61.74 -333.37,-81.14 -162.28,-82.9 -306.92,-149.93 -319.26,-149.93 -12.35,0 -139.35,-54.68 -280.46,-119.94 -553.86,-259.29 -832.56,-386.29 -1120.07,-515.06 -164.04,-74.08 -418.04,-190.5 -562.68,-261.06 -978.07,-469.93 -1980.01,2853.07 -2599.97,3859.39 -305.15,499.18 -315.74,617.36 -135.82,1673.93 164.04,964.85 174.62,911.93 -146.4,705.56 -321.03,-204.61 -1592.79,-814.92 -1934.99,-929.57 -968.37,-319.26 -1726.85,-283.99 -2612.32,119.94 -135.82,61.74 -310.44,135.82 -388.06,160.51 -75.85,26.46 -146.4,52.92 -153.46,58.21 -21.17,14.11 165.81,287.51 324.56,478.01 155.22,185.21 199.32,197.56 336.9,104.07 629.71,-428.62 1841.5,-622.65 2617.61,-418.04 329.85,86.43 1098.9,352.78 1409.35,488.6 807.86,352.78 753.18,294.57 813.15,857.25 22.93,216.96 65.26,419.81 95.25,465.67 119.94,185.21 -562.68,-38.81 -1525.76,-499.18 -807.86,-386.29 -1645.71,-433.92 -2504.72,-144.64 -589.14,199.32 -575.03,188.74 -465.67,359.83 47.62,74.08 105.83,195.79 128.76,268.11 33.51,105.83 54.68,127 102.31,102.31 548.57,-275.17 479.78,-308.68 947.21,470.96 336.9,560.92 416.28,672.04 492.12,682.62 112.89,14.11 111.12,7.06 -169.33,-587.37 -116.42,-246.94 -261.06,-552.1 -319.26,-677.33 -59.97,-127 -125.24,-241.65 -148.17,-255.76 -51.15,-33.51 -51.15,-33.51 578.56,-26.46 571.5,5.29 998.36,61.74 1335.26,174.62 109.36,35.28 373.94,116.42 587.37,178.15 993.07,287.51 1005.42,298.1 1077.74,781.4 58.21,395.11 65.26,418.04 127,418.04 49.39,0 54.68,-29.99 33.51,-197.56 -12.35,-109.36 -31.75,-312.21 -44.1,-451.56l-21.17 -252.24 188.74 -47.62c105.83,-26.46 333.37,-102.31 508,-169.33 351.01,-135.82 1021.29,-363.36 1072.44,-363.36 17.64,0 42.33,333.37 58.21,742.6l24.69 742.6 111.12 -10.58 109.36 -10.58 0 -774.35 0 -774.35 194.03 10.58c107.6,7.06 702.03,37.04 1322.92,68.79l1128.89 58.21 -12.35 479.78c-14.11,587.37 17.64,948.97 86.43,948.97 28.22,0 49.39,-28.22 51.15,-61.74 0,-33.51 22.93,-291.04 49.39,-571.5 28.22,-280.46 42.33,-523.87 31.75,-539.75 -37.04,-58.21 28.22,-294.57 93.49,-335.14 35.28,-22.93 388.06,-112.89 783.17,-201.08 393.35,-88.19 747.89,-167.57 788.46,-176.39 70.56,-17.64 70.56,-7.06 58.21,934.86l-12.35 950.74 121.71 0 121.71 0 26.46 -966.61c14.11,-530.93 14.11,-986.01 -1.76,-1010.71 -15.87,-26.46 -12.35,-35.28 8.82,-22.93 44.1,28.22 1010.71,130.53 1467.56,155.22l345.72 19.4 -22.93 199.32c-22.93,192.26 -75.85,474.49 -225.78,1180.04 -38.81,190.5 -72.32,368.65 -72.32,396.87 0,79.37 67.03,56.44 86.43,-29.99 8.82,-44.1 40.57,-181.68 70.56,-308.68 28.22,-127 100.54,-451.56 156.99,-723.19 58.21,-271.64 171.1,-804.33 252.24,-1181.81 81.14,-379.24 225.78,-1045.99 321.03,-1481.67 485.07,-2201.33 488.6,-2226.03 485.07,-2892.78 -5.29,-643.82 -42.33,-613.83 -144.64,114.65 -24.69,169.33 -52.92,308.68 -65.26,308.68 -19.4,0 -883.71,-351.01 -1074.21,-437.44 -215.19,-98.78 -608.54,-262.82 -899.58,-377.47 -437.44,-171.1 -402.17,-79.37 -365.12,-911.93 15.87,-398.64 29.99,-832.56 28.22,-963.08 0,-255.76 3.53,-262.82 109.36,-188.74 37.04,26.46 379.24,169.33 756.71,319.26 379.24,148.17 719.67,283.99 758.47,301.62 153.46,68.79 862.54,352.78 881.94,352.78 12.35,0 15.87,-74.08 10.58,-165.81l-10.58 -165.81 -352.78 -199.32c-194.03,-109.36 -455.08,-259.29 -582.08,-331.61 -336.9,-195.79 -458.61,-266.35 -635,-365.12 -86.43,-49.39 -218.72,-127 -292.81,-172.86 -906.64,-569.74 -1045.99,-589.14 -1389.94,-192.26l-0.03 0.04zm89.96 1786.82c-15.87,871.36 -37.04,913.69 -735.54,1434.04 -67.03,51.15 -169.33,134.06 -224.01,186.97 -195.79,181.68 -520.35,442.74 -552.1,442.74 -63.5,0 -38.81,-1658.06 24.69,-1793.87 49.39,-102.31 455.08,-451.56 1213.56,-1045.99 74.08,-58.21 135.82,-125.24 135.82,-148.17 1.76,-21.17 29.99,-45.86 63.5,-52.92 81.14,-15.87 88.19,79.37 74.08,977.19l0 0.01zm-4967.1 405.69c-14.89,9.59 -31.75,220.49 -29.99,555.62 5.29,702.03 -75.85,864.31 -1105.96,2187.22 -93.49,119.94 -171.1,227.54 -171.1,238.12 0,12.35 -33.51,56.44 -72.32,98.78 -40.57,42.33 -127,156.99 -194.03,254 -199.32,292.81 -361.6,463.9 -381,405.69 -8.82,-29.99 -26.46,-209.9 -37.04,-400.4 -22.93,-400.4 -29.99,-382.76 322.79,-892.53 197.9,-287.03 1558.26,-2436.8 1645.71,-2490.61 11.28,-8.95 34.27,-16.12 22.94,44.11zm952.49 -585.61c395.11,100.54 959.56,285.75 1488.72,488.6l379.24 144.64 5.29 215.19c3.53,116.42 8.82,252.24 14.11,301.62 26.46,289.28 58.21,1340.56 38.81,1340.56 -21.17,0 -462.14,-167.57 -834.32,-317.5 -142.87,-58.21 -435.68,-165.81 -1093.61,-405.69 -125.24,-45.86 -276.93,-98.78 -335.14,-116.42l-105.83 -29.99 -8.82 -853.72c-12.35,-987.78 -65.26,-897.82 451.56,-767.29l-0.01 0zm5131.15 1640.42c213.43,61.74 610.31,181.68 881.94,266.35 271.64,86.43 592.67,183.44 714.37,216.96 121.71,33.51 220.49,72.32 220.49,86.43 0,14.11 -31.75,183.44 -72.32,373.94 -142.87,686.15 -245.18,1259.42 -245.18,1370.54 0,61.74 -8.82,119.94 -19.4,130.53 -19.4,19.4 -578.56,-179.92 -769.06,-275.17 -54.68,-26.46 -118.18,-49.39 -141.11,-49.39 -22.93,0 -215.19,-68.79 -428.62,-151.69 -213.43,-82.9 -481.54,-181.68 -594.43,-220.49l-208.14 -68.79 21.17 -282.22c12.35,-155.22 31.75,-566.21 44.1,-911.93l24.69 -629.71 91.72 17.64c51.15,8.82 266.35,67.03 479.78,127zm-1104.19 1007.18l-8.82 862.54 -449.79 255.76c-246.94,141.11 -583.85,336.9 -749.65,437.44 -460.37,276.93 -467.43,280.46 -444.5,204.61 45.86,-148.17 56.44,-310.44 81.14,-1058.33l22.93 -784.93 102.31 -22.93c56.44,-12.35 359.83,-176.39 673.81,-366.89 313.97,-188.74 596.19,-352.78 624.42,-363.36 162.28,-61.74 158.75,-79.37 148.17,836.08l-0.02 0.01zm-3746.5 -186.97c224.01,38.81 573.26,104.07 776.11,141.11 204.61,37.04 485.07,86.43 626.18,109.36l255.76 40.57 1.76 283.99c1.76,156.99 15.87,560.92 31.75,901.35 15.87,338.67 24.69,620.89 21.17,624.42 -3.53,5.29 -171.1,-40.57 -373.94,-100.54 -202.85,-58.21 -416.28,-121.71 -474.49,-137.58 -58.21,-15.87 -239.89,-68.79 -405.69,-116.42 -164.04,-47.62 -516.82,-146.4 -783.17,-222.25l-485.07 -135.82 19.4 -264.58c8.82,-144.64 24.69,-352.78 31.75,-458.61 8.82,-107.6 15.87,-338.67 15.87,-516.82l1.76 -322.79 167.57 51.15c91.72,26.46 351.01,82.9 573.26,123.47l0.02 -0.01zm-1195.92 497.41c0,160.51 14.11,425.1 28.22,590.9 22.93,254 19.4,306.92 -28.22,343.96 -142.87,114.65 -220.49,181.68 -532.69,463.9 -421.57,382.76 -368.65,335.14 -672.04,603.25 -141.11,125.24 -275.17,245.18 -296.33,264.58 -349.25,326.32 -347.49,326.32 -403.93,-35.28 -59.97,-396.87 -8.82,-502.71 488.6,-1023.06 585.61,-610.31 1105.96,-1180.04 1262.94,-1384.65 128.76,-169.33 149.93,-144.64 153.46,176.39l-0.01 0.01zm6011.33 1141.24c252.24,49.39 594.43,111.12 758.47,139.35 582.08,98.78 652.64,125.24 649.11,245.18 -3.53,89.96 -197.56,1157.11 -241.65,1322.92 -7.06,28.22 -22.93,97.01 -35.28,149.93 -28.22,130.53 -56.44,128.76 -862.54,-61.74 -370.42,-88.19 -712.61,-158.75 -758.47,-158.75 -197.56,0 -197.56,-1.76 -197.56,-569.74 0,-763.76 58.21,-1206.5 155.22,-1178.28 40.57,12.35 280.46,61.74 532.69,111.12l0.01 0.01zm-1072.44 287.51c0,188.74 7.06,373.94 14.11,410.99 7.06,37.04 17.64,246.94 24.69,465.67 12.35,483.31 17.64,476.25 -485.07,666.75 -194.03,72.32 -430.39,164.04 -527.4,201.08 -97.01,38.81 -275.17,107.6 -396.87,153.46 -121.71,45.86 -238.12,93.49 -255.76,104.07 -19.4,12.35 -37.04,1.76 -37.04,-24.69 -7.06,-111.12 7.06,-583.85 19.4,-680.86 7.06,-58.21 15.87,-298.1 17.64,-532.69l7.06 -426.86 252.24 -98.78c139.35,-54.68 419.81,-179.92 622.65,-280.46 416.28,-204.61 631.47,-296.33 696.74,-299.86 31.75,-1.76 44.1,91.72 47.62,342.19l-0.01 -0.01zm-4058.71 167.57c222.25,29.99 460.37,61.74 529.17,70.56 67.03,8.82 209.9,33.51 317.5,54.68 105.83,19.4 410.99,65.26 677.33,100.54 268.11,35.28 493.89,70.56 502.71,79.37 26.46,28.22 82.9,1562.81 58.21,1585.74 -22.93,22.93 -797.28,-100.54 -1204.74,-192.26 -125.24,-28.22 -458.61,-102.31 -740.83,-165.81 -280.46,-61.74 -539.75,-137.58 -573.26,-165.81 -81.14,-72.32 -95.25,-1419.93 -15.87,-1419.93 26.46,0 227.54,24.69 449.79,52.92l-0.01 0zm-779.64 467.43c42.33,1033.64 59.97,986.01 -439.21,1231.19 -174.62,86.43 -366.89,186.97 -426.86,222.25 -59.97,35.28 -266.35,146.4 -458.61,248.71 -192.26,100.54 -365.12,197.56 -382.76,215.19 -91.72,86.43 -142.87,31.75 -142.87,-153.46 0,-102.31 -14.11,-375.71 -29.99,-608.54l-29.99 -425.1 155.22 -77.61c148.17,-74.08 635,-375.71 1188.86,-737.31 575.03,-377.47 546.81,-381 566.21,84.67l0 0.01z"/>
 </g>
</svg>
